<svg xmlns="http://www.w3.org/2000/svg" width="800" height="200" viewBox="0 0 800 200"><defs><linearGradient id="bg" x1="0" x2="1" y1="0" y2="1"><stop offset="0%" stop-color="#0c0a09"/><stop offset="100%" stop-color="#1c1917"/></linearGradient></defs><rect width="800" height="200" fill="url(#bg)" rx="16"/><g transform="translate(575,40)"><rect width="170" height="110" x="0" y="0" fill="none" stroke="#a78bfa" stroke-width="3" rx="10"/><rect width="142" height="82" x="14" y="14" fill="#1a1a1a" rx="4"/><circle cx="45" cy="55" r="9" fill="#7c3aed"/><circle cx="85" cy="40" r="6" fill="#a78bfa"/><circle cx="118" cy="65" r="12" fill="#c4b5fd"/><circle cx="150" cy="30" r="7" fill="#7c3aed"/><circle cx="60" cy="80" r="5" fill="#a78bfa"/><circle cx="15" cy="-10" r="14" fill="none" stroke="#60a5fa" stroke-width="3"/><circle cx="15" cy="-10" r="7" fill="#60a5fa"/></g><text x="40" y="80" fill="#fff" font-family="system-ui, -apple-system, 'Segoe UI', sans-serif" font-size="40" font-weight="700" letter-spacing="-.5">amazon-fire-tv-fixes</text><text x="40" y="110" fill="#a8a29e" font-family="system-ui, -apple-system, 'Segoe UI', sans-serif" font-size="14">Fix the Alexa deep-sleep bug. Remove ad screensavers.</text><g font-family="system-ui, -apple-system, 'Segoe UI', sans-serif" font-size="10" font-weight="500" text-anchor="middle"><rect width="82" height="22" x="40" y="128" fill="#1a1a1a" stroke="#a78bfa" stroke-width=".8" opacity=".8" rx="11"/><text x="81" y="142.5" fill="#a78bfa">Alexa Fix</text><rect width="150" height="22" x="130" y="128" fill="#1a1a1a" stroke="#60a5fa" stroke-width=".8" opacity=".8" rx="11"/><text x="205" y="142.5" fill="#60a5fa">No-Ad Screensavers</text><rect width="94" height="22" x="288" y="128" fill="#1a1a1a" stroke="#4ade80" stroke-width=".8" opacity=".8" rx="11"/><text x="335" y="142.5" fill="#4ade80">Reversible</text><rect width="104" height="22" x="390" y="128" fill="#1a1a1a" stroke="#fbbf24" stroke-width=".8" opacity=".8" rx="11"/><text x="442" y="142.5" fill="#fbbf24">MIT Licensed</text></g></svg>